<?xml version="1.0" encoding="utf-8"?>
<!-- Generator: Adobe Illustrator 17.1.0, SVG Export Plug-In . SVG Version: 6.00 Build 0)  -->
<!DOCTYPE svg PUBLIC "-//W3C//DTD SVG 1.1//EN" "http://www.w3.org/Graphics/SVG/1.1/DTD/svg11.dtd">
<svg version="1.1" id="Layer_1" xmlns="http://www.w3.org/2000/svg" xmlns:xlink="http://www.w3.org/1999/xlink" x="0px" y="0px"
	 viewBox="0 146.8 612 694.2" enable-background="new 0 146.8 612 694.2" xml:space="preserve">
<g>
	<g>
		<path fill="#FF8D51" d="M314.2,257.5c-4.7-12.7-12-24.4-20.1-35.2c-9.5-12.9-20.1-24.8-31.3-36.1c-13-12.9-26.7-25.5-42.9-34.4
			c-1,15.2-2.2,30.5-3.1,45.7c-8.1,2.1-16.4,3.5-24.6,5.5c-25.4,5.3-50.8,11.1-76.2,16.2c-6.3-13.8-12.8-27.5-19.3-41.3
			c-6.5,7.3-12.2,15.4-17.1,23.9c-12.1,21.2-19.8,45.1-21.9,69.4c-0.9,11.8-0.4,23.6,1.1,35.3c2.3,17,7,33.8,15.3,48.9
			c9.5,17.5,24.2,32.3,41.8,41.6c19.1,10.3,41,14.7,62.5,14.8c15.7,0.1,31.5-2.2,46.6-6.7c25.2-7.5,49.2-20.8,66.7-40.8
			c17.7-20,27.7-46.4,27.8-73.1C319.8,279.7,318.3,268.2,314.2,257.5z M162.8,320.8c-4.9,7-12.5,12.1-21,13.7
			c-8.3,1.8-17.2-0.1-24.4-4.6c-7.3-4.7-12.6-12.2-14.6-20.7c-2.7-11.3,1.1-23.8,9.5-31.7c4.4-4.2,10-7.3,16-8.6
			c7.4-1.4,15.3-0.7,22.1,2.8c8.3,4.2,14.7,11.9,17.1,20.9C170.3,302.1,168.4,312.7,162.8,320.8z M263,296.6
			c-5.2,7.2-13.2,12.1-21.9,13.6c-9.9,1.9-20.5-1-28.2-7.4c-7.8-6.4-12.6-16.5-12-26.7c0.1-14.4,11-27.5,24.7-31
			c7.8-2.1,16.5-1.7,23.8,1.8c9.2,4,16.4,12.4,18.9,22.1C270.9,278.3,268.8,288.8,263,296.6z"/>
	</g>
</g>
<path fill="#D1C6B6" d="M443.4,276.4c9.6-1.8,19.5,0.4,28.4,4.2c12.7,5.5,23.4,14.6,32.9,24.5c26.4,28.6,49.7,60.4,67.2,95.2
	c10.2,20.6,18.2,42.2,23.1,64.6c4.3,19.2,6.6,38.7,8.5,58.2c0.9,10.3,2,20.6,2.4,30.8c0.4,10.9-1,21.6-2.4,32.4
	c-1.1,8.5-3.1,16.9-5.3,25.2c-3.4,15.5-8.6,30.5-14.1,45.3c-4.2,11.3-9.3,22.1-14.4,32.9c-6.6,13.9-14.7,27.1-23.4,39.8
	c-6.8,10.2-14.7,19.7-22.9,28.8c-10.1,10.6-20.6,20.8-32.4,29.5c-32.6,24.9-71.6,41.8-112.5,46.7c-3,0.4-6,0.7-9.1,0.6
	c15.2-2.5,29.8-8,43.9-14.3c25-11.9,48.2-27.7,67.4-47.6c17-17.5,31-38.1,40.8-60.5c6.7-15,11.6-30.8,15.2-46.8
	c9.6-46.4,7.3-94.6-1.7-140.9c-2.7-11.6-6.8-22.9-11.1-34c-9.6-23.6-21.1-46.4-35.1-67.6c-13.7-20.5-29.7-40.1-50.3-54
	c-6.1-4.2-13.3-6.9-18.8-12.1c-7.5-6.6-11.9-16.4-12.9-26.2c-1.6-12.9,1.9-26.4,9.3-37.1C422.5,285,432.4,278.2,443.4,276.4z"/>
<path fill="#87726D" d="M298.1,383.8c16-15,27.8-34.7,32.7-56.2c29.7,7.7,57.8,21.3,82.4,39.5c44.5,32.8,77.4,80.2,95.7,132.2
	C523.7,541,529,586,524.6,630c-3.2,32.8-12.1,65.2-27.8,94.3c-13.9,26.1-33.5,49.3-57.4,66.7c-23.9,18.2-51.9,30.5-80.8,38.3
	c-39.4,10.6-80.6,13.3-121.2,10.9c-17-1.1-33.8-3.2-50.5-6c-24.7-4.2-49.3-10.3-72.6-20c-23.2-9.5-45.1-22.9-62.7-40.8
	c-17.9-18.2-30.8-40.8-38.6-65C3.1,677.6,0.1,645,0,612.8c0.2-26.7,1.5-53.5,7.1-79.6c6.3-30.5,17.8-60.1,34.5-86.5
	C54,426.9,69.1,409,86.1,393.1c13.7,14.7,32,24.9,51.4,30.1c15.5,4.4,31.5,5,47.5,5.4c29.2,0.7,58.5-7.1,83.7-21.8
	C279.4,400.5,289,392.4,298.1,383.8z"/>
<path fill="#D1C6B6" d="M316.3,376.1c8.9-12,15.2-25.7,18.7-40c-0.1,2.1-0.2,4.1-0.5,6.1c-5.5,37.5-10.7,75-16.4,112.5
	c-27.9-6.4-55.8-13.2-83.7-19.6c-2.3-0.6-4.5-1.1-6.8-1.8c23.9-5.9,47-16.5,65.6-32.8C301.6,392.8,309.9,385.2,316.3,376.1z"/>
<path fill="#D1C6B6" d="M85.3,403.6c3.7,2.9,6.9,6.4,10.7,9.2c19.8,15.5,44.8,23,69.7,24.3c14.8,1.1,29.8,1.7,44.6-0.7
	c2.5-0.5,5-0.8,7.6-1c-22.8,18.5-45.8,36.6-68.8,54.8c-18.3-24.6-36.6-49.5-54.9-74.1C91.3,411.8,88.3,407.8,85.3,403.6z"/>
<path fill="#A0C8C9" d="M184.4,477.2c13.8-12,27.4-24.1,41.2-36.1c17.6,4.9,35.1,9.9,52.7,14.9c-2.7,5.5-5.5,10.9-8.3,16.3
	c-23.6,5.4-47.4,10.7-71,16.1C194.1,484.7,189.1,481,184.4,477.2z"/>
<path fill="#A0C8C9" d="M203.2,497.2c23.5-5.2,46.9-10.7,70.5-15.7c20.1,43.1,40.2,86.2,60.4,129.4c-17.5,25.7-34.9,51.5-52.2,77.2
	c-26.2-16-52.5-31.8-78.7-47.9C203,592.5,203.1,544.8,203.2,497.2z"/>
</svg>
