<?xml version="1.0" encoding="UTF-8" ?>
<!DOCTYPE svg PUBLIC "-//W3C//DTD SVG 1.1//EN" "http://www.w3.org/Graphics/SVG/1.1/DTD/svg11.dtd">
<svg width="1034pt" height="967pt" viewBox="0 0 1034 967" version="1.1" xmlns="http://www.w3.org/2000/svg">
<path fill="#d95832" d=" M 474.36 82.45 C 475.67 59.96 477.55 37.50 478.78 15.01 C 495.76 24.01 510.76 36.27 524.98 49.09 C 550.91 73.26 575.08 99.55 595.25 128.75 C 607.72 147.07 618.38 167.13 622.79 189.03 C 626.46 209.13 626.06 229.95 622.26 250.02 C 615.73 284.36 597.51 316.15 571.76 339.71 C 545.09 364.23 511.50 380.38 476.56 389.22 C 455.15 394.54 432.98 396.94 410.94 395.99 C 384.96 395.07 358.93 389.77 335.29 378.78 C 310.02 367.17 287.95 348.60 272.58 325.38 C 253.18 296.35 244.05 261.55 241.47 227.02 C 237.61 186.16 246.39 144.70 263.46 107.57 C 272.59 88.19 283.87 69.59 298.42 53.79 C 307.88 73.81 317.26 93.87 326.57 113.96 C 328.36 113.75 330.13 113.44 331.90 113.14 C 379.37 102.83 426.90 92.81 474.36 82.45 Z" />
<path fill="#b3a188" d=" M 721.99 94.61 C 734.03 91.01 747.01 91.84 759.06 94.94 C 775.54 99.13 790.45 107.88 803.89 118.10 C 817.91 128.95 830.50 141.47 842.98 154.02 C 869.65 181.01 894.07 210.28 915.21 241.81 C 933.12 268.49 948.42 297.00 959.98 327.00 C 976.54 369.77 984.67 415.11 992.49 460.11 C 995.05 474.91 997.00 489.90 996.70 504.96 C 996.72 523.32 995.53 541.70 992.41 559.81 C 990.63 569.70 989.46 579.69 987.40 589.52 C 982.18 612.74 976.44 635.89 968.55 658.37 C 961.84 677.04 955.22 695.80 946.36 713.58 C 936.98 732.89 926.76 751.86 914.63 769.59 C 896.54 795.96 875.59 820.53 851.23 841.32 C 810.50 876.69 761.77 903.25 709.27 916.18 C 701.52 917.99 693.77 920.08 685.81 920.69 C 706.52 915.25 726.07 906.09 744.84 895.92 C 772.70 880.18 798.35 860.58 820.97 837.95 C 844.79 813.22 865.16 784.97 879.64 753.78 C 888.96 734.02 896.19 713.28 901.26 692.02 C 904.86 676.50 908.03 660.83 909.31 644.91 C 916.03 581.23 907.44 516.82 890.97 455.23 C 886.61 437.40 878.78 420.69 871.01 404.15 C 854.92 371.46 836.01 340.11 814.05 311.02 C 789.82 279.50 761.94 249.46 726.71 230.16 C 718.11 225.35 708.46 222.51 700.49 216.57 C 689.89 209.15 682.29 197.95 678.57 185.62 C 672.08 164.68 675.33 141.18 686.52 122.42 C 694.31 109.20 707.06 98.62 721.99 94.61 Z" />
<path fill="#ffffff" d=" M 492.62 150.95 C 502.82 149.36 513.55 150.59 522.90 155.09 C 536.61 161.37 547.16 174.23 550.34 189.00 C 553.37 202.40 550.23 216.99 542.02 228.00 C 534.65 238.17 523.20 245.17 510.90 247.54 C 496.05 250.58 479.95 246.38 468.38 236.62 C 459.69 229.36 453.49 219.04 451.60 207.84 C 448.97 194.39 452.86 179.99 461.34 169.31 C 468.98 159.56 480.45 153.01 492.62 150.95 Z" />
<path fill="#ffffff" d=" M 347.44 186.70 C 357.83 185.25 368.77 186.74 378.00 191.87 C 394.28 200.34 404.87 218.62 403.83 236.98 C 403.61 258.31 387.47 278.07 366.74 282.86 C 351.06 287.01 333.49 282.31 321.74 271.19 C 311.78 262.00 305.81 248.50 306.16 234.92 C 305.99 223.78 310.14 212.74 317.12 204.11 C 324.64 194.86 335.63 188.47 347.44 186.70 Z" />
<path fill="#453a38" d=" M 626.37 192.61 C 666.73 204.76 704.81 224.27 738.46 249.64 C 798.59 294.95 844.43 358.04 872.15 427.82 C 899.68 496.66 909.21 572.52 899.99 646.05 C 893.98 692.58 879.69 738.32 855.78 778.82 C 845.36 796.43 833.19 813.03 819.31 828.07 C 807.57 841.12 794.18 852.56 780.42 863.40 C 748.49 888.10 711.61 905.85 673.28 918.15 C 623.16 934.19 570.50 941.33 517.99 942.42 C 479.16 943.19 440.29 940.21 401.90 934.41 C 367.98 929.21 334.35 921.23 302.42 908.51 C 268.24 894.90 236.09 875.21 210.54 848.53 C 184.39 821.60 165.84 787.99 154.29 752.42 C 140.17 709.72 134.67 664.68 132.77 619.91 C 132.10 597.88 131.93 575.80 133.02 553.78 C 136.23 498.21 149.52 442.85 175.15 393.26 C 193.13 358.05 216.79 325.84 244.38 297.57 C 252.61 317.19 265.24 334.76 280.45 349.57 C 314.32 383.25 359.96 406.27 408.09 408.53 C 431.16 409.73 454.21 406.84 476.78 402.24 C 458.82 408.50 439.56 409.39 420.72 410.32 C 426.01 418.23 431.67 425.87 437.14 433.66 C 443.19 441.55 447.84 450.40 453.93 458.27 C 457.40 462.65 459.91 467.85 464.01 471.70 C 469.31 471.59 474.10 468.94 479.09 467.45 C 505.98 458.61 532.82 449.62 559.68 440.70 C 559.58 430.01 559.47 419.28 558.04 408.67 C 556.95 394.68 556.86 380.62 555.80 366.63 C 543.29 374.67 530.84 383.25 516.71 388.21 C 552.43 371.61 583.86 345.57 605.93 312.86 C 619.79 291.81 631.64 268.43 634.20 243.02 C 635.78 225.84 631.12 208.95 626.37 192.61 Z" />
<path fill="#4a8181" d=" M 516.71 388.21 C 530.84 383.25 543.29 374.67 555.80 366.63 C 556.86 380.62 556.95 394.68 558.04 408.67 C 559.47 419.28 559.58 430.01 559.68 440.70 C 532.82 449.62 505.98 458.61 479.09 467.45 C 474.10 468.94 469.31 471.59 464.01 471.70 C 459.91 467.85 457.40 462.65 453.93 458.27 C 447.84 450.40 443.19 441.55 437.14 433.66 C 431.67 425.87 426.01 418.23 420.72 410.32 C 439.56 409.39 458.82 408.50 476.78 402.24 C 482.69 400.24 488.80 398.94 494.68 396.85 C 502.20 394.43 509.39 391.16 516.71 388.21 Z" />
<path fill="#4a8181" d=" M 535.75 457.41 C 545.44 454.37 554.96 450.60 564.81 448.18 C 567.13 450.36 568.30 453.42 569.95 456.10 C 603.23 512.82 636.51 569.56 669.78 626.29 C 671.28 628.12 670.00 630.28 669.14 632.08 C 652.66 663.63 636.16 695.18 619.68 726.74 C 616.11 733.88 612.05 740.78 608.83 748.10 C 568.58 727.91 527.90 708.58 487.64 688.44 C 482.32 637.30 477.02 586.15 471.68 535.01 C 469.98 516.72 467.63 498.48 466.17 480.17 C 489.40 472.69 512.51 464.84 535.75 457.41 Z" />
</svg>
