<?xml version="1.0" encoding="utf-8"?>
<!-- Generator: Adobe Illustrator 17.1.0, SVG Export Plug-In . SVG Version: 6.00 Build 0)  -->
<!DOCTYPE svg PUBLIC "-//W3C//DTD SVG 1.1//EN" "http://www.w3.org/Graphics/SVG/1.1/DTD/svg11.dtd">
<svg version="1.1" id="Layer_1" xmlns="http://www.w3.org/2000/svg" xmlns:xlink="http://www.w3.org/1999/xlink" x="0px" y="0px"
	 viewBox="0 0 1007 993" enable-background="new 0 0 1007 993" xml:space="preserve">
<path fill="#B3A188" d="M747.4,120.6c17.4-4,35.7,0.5,51.3,8.3c16.5,8.3,30.8,20.5,43.7,33.5c25,25.2,48.3,52.2,68.7,81.3
	c18.2,25.8,34.3,53.2,46.9,82.2c13,29.4,21.7,60.5,27.7,92c4.7,24.5,8,49.1,11.3,73.8c1.3,10,1.8,20.1,2.1,30.2
	c-0.8,19-1.9,38.2-5.8,56.8c-2.4,11.4-4.2,22.9-7.1,34.2c-5.9,22.5-12.5,44.8-21,66.5c-6.9,17-13.7,34.2-22.5,50.4
	c-9.3,17.6-19.4,34.8-30.9,51c-12.5,17.3-26.3,33.6-41.5,48.6c-48.2,47-110,80.7-176.5,92.2c-4.6,0.7-9.2,1.8-13.8,1.7
	c8.7-1.3,16.9-4.5,25.2-7.2c39.2-14.2,75.1-36.8,106.1-64.6c26.1-24.1,48.5-52.5,64.7-84.2c11.1-21.6,19.6-44.5,25.4-68.1
	c6.2-23.3,9-47.3,10.6-71.2c1.4-31.3,0.3-62.8-4.2-93.9c-2.4-19-6.1-37.8-10.3-56.4c-3.8-17.9-10.9-34.7-18.1-51.4
	c-15.5-34.3-34-67.3-56.2-97.8c-20.9-28.3-44.9-55.2-75.1-73.9c-9.5-6-20.5-9.4-29-17c-13.5-11-20.3-28.5-20.9-45.6
	c-0.6-15.4,3.6-30.8,11.6-43.9C718.4,134.6,731.8,124,747.4,120.6z"/>
<g>
	<g>
		<path fill="#D95832" d="M601.8,198.1c-2-19.1-9.3-37.2-19.3-53.5c-8.7-14.3-19.1-27.5-30.1-40c-14.2-16.1-29.5-31.2-45.6-45.4
			c-17-14.8-34.9-28.9-55.3-38.8c-0.3,21.3-1.1,42.6-1.3,63.9c0.4,1.5-1.2,2.2-2.3,2.4c-46.7,12.2-93.3,24.8-140,37
			c-9.9-19.3-20.3-38.3-30.1-57.6c-8.5,9.5-15.1,20.5-21.2,31.6c-20.3,38.3-30.8,82-28,125.4c2.6,34.5,11,69.3,29.5,98.9
			c16.2,26.2,40.7,47,69.2,58.7c23.6,9.8,49.3,14,74.8,13.7c40.1-0.1,80.1-11.4,114.7-31.6c29.8-17.3,55.3-42.5,70.3-73.7
			C600.8,261.1,605.8,229,601.8,198.1z M380.8,266.8c-8.6,13.1-24.1,21.5-39.8,21c-13,0.3-25.9-5.6-34.7-15.1
			c-7.3-7.8-11.7-18.1-12.7-28.7c-1.2-14,4.1-28.4,14.3-38.1c6.6-6.7,15.4-11.1,24.6-12.8c13.2-2.5,27.4,1,38,9.4
			c11.7,9,18.7,23.8,18.3,38.5C388.8,250.1,385.8,259.2,380.8,266.8z M521.4,226.4c-7.6,10.4-19.6,17.5-32.3,19.4
			c-15.4,2.5-31.9-2.9-42.7-14.1c-7.6-7.6-12.4-17.9-13.5-28.5c-1.4-13.7,3.7-28,13.5-37.7c6.7-7,15.6-11.7,25-13.7
			c13.8-3.1,28.8,0.3,40,8.7c9.6,7,16.3,17.8,18.5,29.4C532.3,202.5,529.1,216.1,521.4,226.4z"/>
	</g>
</g>
<path fill="#453A38" d="M628.3,216.5c37.1,13.6,71.9,33.6,102.4,58.7c60.5,49.7,104.7,118,128.5,192.4
	c16.8,52.4,23.2,108.1,19.3,162.9c-3.8,51.5-17.5,102.7-43.3,147.7c-11.6,20.3-25.7,39.2-41.8,56.1c-27.2,27.8-59.6,50.6-95.2,66.6
	c-46.3,21.2-96.7,32.5-147.3,37.5c-34.9,3.3-70.1,3.7-105.1,1.1c-35.9-2.8-71.8-7.7-106.8-16.8c-37.2-9.8-73.6-24.4-104.7-47.3
	c-29.3-21.1-53.1-49.6-69.1-81.9c-18.8-37.9-28.2-79.8-33-121.7c-3.8-34.5-4.5-69.2-3.4-103.9c1.9-38.3,8.3-76.4,20.6-112.7
	c16.7-50,44.9-96,80.7-134.6c6.4,11.6,14,22.6,23.2,32.1c5.4,5.6,10.9,11.1,16.4,16.5c19.8,19.4,45.4,32.3,72.2,38.9
	c17.6,4.5,35.9,5.9,54,6.1c9.7-0.2,19.3,0.3,29-0.4c21.6-0.5,43-4.7,63.5-11.4c21.7-7.2,42.6-17.4,61-31.1
	c12.3-8.9,22.8-19.8,33.3-30.6c12.5-13,23.1-28,30.6-44.4c9.8-20.7,14.6-43.7,14.9-66.5C628.3,225.5,628.3,221,628.3,216.5z"/>
<path fill="#4A8081" d="M409.6,435.6c46.8,2.1,94.3-10.2,133.9-35.3c0.2,23.6,0.5,47.2,1,70.8c-31.7,9.4-63.6,18.1-95.3,27.4
	c-11.4-17.8-22.6-35.7-34-53.4C413.2,441.9,411,439,409.6,435.6z"/>
<path fill="#4A8081" d="M522.6,493.3c9.3-2.5,18.3-5.6,27.7-7.7c31.8,59.9,63.7,119.8,95.5,179.8c-22.1,38-44.1,75.9-66.2,113.9
	c-38-20.8-76.1-41.6-114.1-62.5c-4.2-67.9-8.3-135.8-12.4-203.6C476.3,506.5,499.4,499.9,522.6,493.3z"/>
</svg>
