<?xml version="1.0" encoding="utf-8"?>
<!-- Generator: Adobe Illustrator 17.1.0, SVG Export Plug-In . SVG Version: 6.00 Build 0)  -->
<!DOCTYPE svg PUBLIC "-//W3C//DTD SVG 1.1//EN" "http://www.w3.org/Graphics/SVG/1.1/DTD/svg11.dtd">
<svg version="1.1" id="Layer_1" xmlns="http://www.w3.org/2000/svg" xmlns:xlink="http://www.w3.org/1999/xlink" x="0px" y="0px"
	 viewBox="106.8 46.9 851.6 951.6" enable-background="new 106.8 46.9 851.6 951.6" xml:space="preserve">
<g>
	<g>
		<path fill="#FF8D51" d="M547.8,194.1c-6.6-17.7-16.7-33.9-27.9-49c-13.2-17.9-28-34.5-43.6-50.3c-18.1-18-37.2-35.5-59.7-47.8
			c-1.4,21.2-3,42.4-4.3,63.6c-11.3,2.9-22.8,4.9-34.2,7.6c-35.4,7.4-70.7,15.4-106.1,22.6c-8.7-19.2-17.8-38.3-26.8-57.4
			c-9,10.2-17,21.4-23.8,33.2c-16.9,29.5-27.6,62.7-30.5,96.6c-1.3,16.4-0.5,32.8,1.6,49.1c3.2,23.6,9.7,47.1,21.3,68.1
			c13.2,24.4,33.7,44.9,58.2,57.9c26.6,14.3,57,20.5,87,20.6c21.9,0.2,43.8-3,64.8-9.3c35.1-10.4,68.5-29,92.8-56.8
			c24.6-27.8,38.6-64.6,38.7-101.7C555.6,225.1,553.5,209,547.8,194.1z M337.2,282.2c-6.8,9.8-17.4,16.9-29.2,19.1
			c-11.6,2.5-24-0.1-33.9-6.4c-10.1-6.5-17.6-17-20.3-28.8c-3.8-15.7,1.5-33.1,13.2-44.1c6.1-5.9,13.9-10.1,22.3-11.9
			c10.3-2,21.3-1,30.7,3.9c11.5,5.8,20.5,16.6,23.8,29.1C347.6,256.2,345,271,337.2,282.2z M476.6,248.6
			c-7.2,10-18.4,16.8-30.5,18.9c-13.8,2.6-28.5-1.4-39.3-10.3c-10.9-8.9-17.5-23-16.7-37.1c0.1-20,15.3-38.2,34.4-43.2
			c10.9-2.9,22.9-2.3,33.1,2.5c12.8,5.6,22.8,17.2,26.3,30.7C487.6,223.1,484.6,237.7,476.6,248.6z"/>
	</g>
</g>
<path fill="#D1C6B6" d="M732.1,211.7c13.4-2.5,27.2,0.5,39.5,5.8c17.7,7.6,32.6,20.3,45.8,34.1c36.8,39.8,69.2,84,93.5,132.5
	c14.2,28.6,25.3,58.7,32.1,89.9c6,26.7,9.2,53.9,11.8,81c1.3,14.3,2.8,28.6,3.4,42.9c0.5,15.1-1.4,30.1-3.4,45.1
	c-1.6,11.8-4.3,23.5-7.4,35.1c-4.8,21.5-12,42.4-19.6,63c-5.8,15.7-12.9,30.8-20.1,45.8c-9.2,19.4-20.5,37.7-32.5,55.4
	c-9.5,14.2-20.4,27.4-31.9,40.1c-14,14.8-28.7,29-45.1,41.1c-45.4,34.6-99.6,58.1-156.5,65c-4.2,0.6-8.4,1-12.6,0.9
	c21.2-3.5,41.5-11.2,61.1-19.9c34.8-16.5,67.1-38.5,93.8-66.3c23.7-24.4,43.1-53,56.8-84.2c9.3-20.9,16.2-42.8,21.1-65.1
	c13.4-64.6,10.1-131.6-2.3-196.1c-3.7-16.2-9.5-31.8-15.5-47.3c-13.3-32.8-29.4-64.5-48.9-94.1c-19.1-28.5-41.3-55.8-70-75.1
	c-8.5-5.9-18.5-9.6-26.1-16.9c-10.5-9.2-16.5-22.8-18-36.5c-2.2-18,2.7-36.7,13-51.6C703,223.7,716.8,214.2,732.1,211.7z"/>
<path fill="#87726D" d="M521.6,362.5c22.3-20.9,38.7-48.3,45.5-78.2c41.3,10.7,80.4,29.6,114.7,55
	c61.9,45.7,107.7,111.6,133.2,183.9c20.6,58,27.9,120.6,21.8,181.8c-4.5,45.6-16.9,90.7-38.7,131.2c-19.4,36.3-46.6,68.6-79.9,92.8
	c-33.3,25.3-72.2,42.4-112.4,53.3c-54.8,14.7-112.1,18.5-168.6,15.1c-23.6-1.5-47-4.4-70.3-8.3c-34.4-5.9-68.6-14.4-101-27.8
	c-32.3-13.2-62.7-31.8-87.2-56.8c-24.9-25.3-42.9-56.8-53.7-90.5c-13.8-42.8-18-88.2-18.1-133c0.3-37.1,2.1-74.4,9.9-110.8
	c8.7-42.5,24.8-83.6,48-120.3c17.2-27.4,38.1-52.4,61.8-74.4c19.1,20.5,44.5,34.7,71.5,41.9c21.5,6.1,43.9,7,66.1,7.5
	c40.6,1,81.4-9.9,116.5-30.3C495.6,385.8,509,374.5,521.6,362.5z"/>
<path fill="#D1C6B6" d="M539.2,342.9c12.6-16.4,21.8-35.3,27-55.3c-0.2,2.9-0.4,5.7-0.9,8.5c-8.6,52-16.9,104.1-25.6,156.1
	c-38.7-9.6-77.3-19.7-115.9-29.4c-3.2-0.8-6.3-1.7-9.4-2.6c33.4-7.6,65.8-21.7,92.1-44C518.2,365.8,529.9,355.4,539.2,342.9z"/>
<path fill="#D1C6B6" d="M229,378.7c5.1,4,9.7,8.8,15,12.6c27.8,21.1,62.8,31.2,97.4,32.5c20.6,1.2,41.5,1.8,62-1.8
	c3.5-0.7,7-1.3,10.6-1.6c-31.4,26.1-63.1,51.7-94.7,77.5c-25.9-34-51.7-68.2-77.6-102.2C237.5,390,233.1,384.5,229,378.7z"/>
<path fill="#A0C8C9" d="M362,488.3c19.2-16.7,38.1-33.6,57.3-50.3c24.5,6.8,48.9,13.8,73.3,20.8c-3.7,7.7-7.7,15.2-11.5,22.7
	c-32.9,7.5-65.9,14.9-98.8,22.4C375.5,498.7,368.6,493.6,362,488.3z"/>
<path fill="#A0C8C9" d="M388.1,518.9c32.7-7.2,65.3-14.9,98.1-21.9c28,60,55.9,120,84,180c-24.3,35.8-48.5,71.6-72.7,107.4
	c-36.5-22.2-73-44.3-109.5-66.6C387.9,651.5,388,585.2,388.1,518.9z"/>
</svg>
