<svg xmlns="http://www.w3.org/2000/svg" viewBox="0 146.8 612 694.2" enable-background="new 0 146.8 612 694.2" width="135" height="140"><path fill="#FF8D51" d="M314.2 257.5c-4.7-12.7-12-24.4-20.1-35.2-9.5-12.9-20.1-24.8-31.3-36.1-13-12.9-26.7-25.5-42.9-34.4-1 15.2-2.2 30.5-3.1 45.7-8.1 2.1-16.4 3.5-24.6 5.5-25.4 5.3-50.8 11.1-76.2 16.2-6.3-13.8-12.8-27.5-19.3-41.3-6.5 7.3-12.2 15.4-17.1 23.9-12.1 21.2-19.8 45.1-21.9 69.4-.9 11.8-.4 23.6 1.1 35.3 2.3 17 7 33.8 15.3 48.9 9.5 17.5 24.2 32.3 41.8 41.6 19.1 10.3 41 14.7 62.5 14.8 15.7.1 31.5-2.2 46.6-6.7 25.2-7.5 49.2-20.8 66.7-40.8 17.7-20 27.7-46.4 27.8-73.1.3-11.5-1.2-23-5.3-33.7zm-151.4 63.3c-4.9 7-12.5 12.1-21 13.7-8.3 1.8-17.2-.1-24.4-4.6-7.3-4.7-12.6-12.2-14.6-20.7-2.7-11.3 1.1-23.8 9.5-31.7 4.4-4.2 10-7.3 16-8.6 7.4-1.4 15.3-.7 22.1 2.8 8.3 4.2 14.7 11.9 17.1 20.9 2.8 9.5.9 20.1-4.7 28.2zM263 296.6c-5.2 7.2-13.2 12.1-21.9 13.6-9.9 1.9-20.5-1-28.2-7.4-7.8-6.4-12.6-16.5-12-26.7.1-14.4 11-27.5 24.7-31 7.8-2.1 16.5-1.7 23.8 1.8 9.2 4 16.4 12.4 18.9 22.1 2.6 9.3.5 19.8-5.3 27.6z"/><path fill="#D1C6B6" d="M443.4 276.4c9.6-1.8 19.5.4 28.4 4.2 12.7 5.5 23.4 14.6 32.9 24.5 26.4 28.6 49.7 60.4 67.2 95.2 10.2 20.6 18.2 42.2 23.1 64.6 4.3 19.2 6.6 38.7 8.5 58.2.9 10.3 2 20.6 2.4 30.8.4 10.9-1 21.6-2.4 32.4-1.1 8.5-3.1 16.9-5.3 25.2-3.4 15.5-8.6 30.5-14.1 45.3-4.2 11.3-9.3 22.1-14.4 32.9-6.6 13.9-14.7 27.1-23.4 39.8-6.8 10.2-14.7 19.7-22.9 28.8-10.1 10.6-20.6 20.8-32.4 29.5-32.6 24.9-71.6 41.8-112.5 46.7-3 .4-6 .7-9.1.6 15.2-2.5 29.8-8 43.9-14.3 25-11.9 48.2-27.7 67.4-47.6 17-17.5 31-38.1 40.8-60.5 6.7-15 11.6-30.8 15.2-46.8 9.6-46.4 7.3-94.6-1.7-140.9-2.7-11.6-6.8-22.9-11.1-34-9.6-23.6-21.1-46.4-35.1-67.6-13.7-20.5-29.7-40.1-50.3-54-6.1-4.2-13.3-6.9-18.8-12.1-7.5-6.6-11.9-16.4-12.9-26.2-1.6-12.9 1.9-26.4 9.3-37.1 6.4-9 16.3-15.8 27.3-17.6z"/><path fill="#87726D" d="M298.1 383.8c16-15 27.8-34.7 32.7-56.2 29.7 7.7 57.8 21.3 82.4 39.5 44.5 32.8 77.4 80.2 95.7 132.2C523.7 541 529 586 524.6 630c-3.2 32.8-12.1 65.2-27.8 94.3-13.9 26.1-33.5 49.3-57.4 66.7-23.9 18.2-51.9 30.5-80.8 38.3-39.4 10.6-80.6 13.3-121.2 10.9-17-1.1-33.8-3.2-50.5-6-24.7-4.2-49.3-10.3-72.6-20-23.2-9.5-45.1-22.9-62.7-40.8-17.9-18.2-30.8-40.8-38.6-65C3.1 677.6.1 645 0 612.8c.2-26.7 1.5-53.5 7.1-79.6 6.3-30.5 17.8-60.1 34.5-86.5C54 426.9 69.1 409 86.1 393.1c13.7 14.7 32 24.9 51.4 30.1 15.5 4.4 31.5 5 47.5 5.4 29.2.7 58.5-7.1 83.7-21.8 10.7-6.3 20.3-14.4 29.4-23z"/><path fill="#D1C6B6" d="M316.3 376.1c8.9-12 15.2-25.7 18.7-40-.1 2.1-.2 4.1-.5 6.1-5.5 37.5-10.7 75-16.4 112.5-27.9-6.4-55.8-13.2-83.7-19.6-2.3-.6-4.5-1.1-6.8-1.8 23.9-5.9 47-16.5 65.6-32.8 8.4-7.7 16.7-15.3 23.1-24.4zM85.3 403.6c3.7 2.9 6.9 6.4 10.7 9.2 19.8 15.5 44.8 23 69.7 24.3 14.8 1.1 29.8 1.7 44.6-.7 2.5-.5 5-.8 7.6-1-22.8 18.5-45.8 36.6-68.8 54.8-18.3-24.6-36.6-49.5-54.9-74.1-2.9-4.3-5.9-8.3-8.9-12.5z"/><path fill="#A0C8C9" d="M184.4 477.2c13.8-12 27.4-24.1 41.2-36.1 17.6 4.9 35.1 9.9 52.7 14.9-2.7 5.5-5.5 10.9-8.3 16.3-23.6 5.4-47.4 10.7-71 16.1-4.9-3.7-9.9-7.4-14.6-11.2zM203.2 497.2c23.5-5.2 46.9-10.7 70.5-15.7 20.1 43.1 40.2 86.2 60.4 129.4-17.5 25.7-34.9 51.5-52.2 77.2-26.2-16-52.5-31.8-78.7-47.9-.2-47.7-.1-95.4 0-143z"/></svg>